<svg xmlns="http://www.w3.org/2000/svg" width="1500" height="900" viewBox="0 0 1500 900">
<style>text{font-family:Arial,sans-serif;fill:#172033}.title{font-size:30px;font-weight:bold}.label{font-size:18px}.small{font-size:14px}.note{font-size:13px;fill:#4d5c70}.axis{stroke:#45576d;stroke-width:2}.grid{stroke:#d5dce5;stroke-width:1}</style>
<rect width="1500" height="900" fill="white"/>
<text x="70" y="60" class="title">Figure 4. Task 4 score, safety, and latency records</text>
<text x="70" y="90" class="note">Circles: frozen specialist evaluations. B33 historical benchmark has no P95; package check has no score. Neither is plotted as a point.</text>
<line x1="150" y1="760" x2="1350" y2="760" class="axis"/><line x1="150" y1="150" x2="150" y2="760" class="axis"/>
<line x1="150" y1="150" x2="150" y2="760" class="grid"/><text x="150" y="790" text-anchor="middle" class="small">0 ms P95</text>
<line x1="150" y1="760" x2="1350" y2="760" class="grid"/><text x="140" y="765" text-anchor="end" class="small">0</text>
<line x1="390" y1="150" x2="390" y2="760" class="grid"/><text x="390" y="790" text-anchor="middle" class="small">5 ms P95</text>
<line x1="150" y1="650" x2="1350" y2="650" class="grid"/><text x="140" y="655" text-anchor="end" class="small">1</text>
<line x1="630" y1="150" x2="630" y2="760" class="grid"/><text x="630" y="790" text-anchor="middle" class="small">10 ms P95</text>
<line x1="150" y1="540" x2="1350" y2="540" class="grid"/><text x="140" y="545" text-anchor="end" class="small">2</text>
<line x1="870" y1="150" x2="870" y2="760" class="grid"/><text x="870" y="790" text-anchor="middle" class="small">15 ms P95</text>
<line x1="150" y1="430" x2="1350" y2="430" class="grid"/><text x="140" y="435" text-anchor="end" class="small">3</text>
<line x1="1110" y1="150" x2="1110" y2="760" class="grid"/><text x="1110" y="790" text-anchor="middle" class="small">20 ms P95</text>
<line x1="150" y1="320" x2="1350" y2="320" class="grid"/><text x="140" y="325" text-anchor="end" class="small">4</text>
<line x1="1350" y1="150" x2="1350" y2="760" class="grid"/><text x="1350" y="790" text-anchor="middle" class="small">25 ms P95</text>
<line x1="150" y1="210" x2="1350" y2="210" class="grid"/><text x="140" y="215" text-anchor="end" class="small">5</text>
<text x="700" y="835" text-anchor="middle" class="label">act P95 latency (ms)</text>
<text x="48" y="480" transform="rotate(-90 48 480)" text-anchor="middle" class="label">mean score</text>
<circle cx="1109.04" cy="313.40000000000003" r="11" fill="#4c78a8"/>
<text x="999.04" y="281.40000000000003" class="small">E1-11</text>
<circle cx="1067.76" cy="309.0" r="11" fill="#4c78a8"/>
<text x="1082.76" y="259.0" class="small">E1-22</text>
<circle cx="1218.0" cy="400.3" r="11" fill="#4c78a8"/>
<text x="1233.0" y="424.3" class="small">E1-33</text>
<circle cx="1083.1200000000001" cy="313.95000000000005" r="11" fill="#4c78a8"/>
<text x="968.1200000000001" y="335.95000000000005" class="small">C-22</text>
<circle cx="1076.4" cy="316.15" r="11" fill="#4c78a8"/>
<text x="1091.4" y="361.15" class="small">S-22</text>
<text x="760" y="866" class="small">B33 historical: score 4.231, P95 not reported</text>
<rect x="70" y="852" width="18" height="18" fill="#999"/><text x="100" y="866" class="small">Die Hardest package check: score not measured</text>
<text x="160" y="125" class="note">Safety note: plotted evaluated attempts report 0 observed suicide; B33 retains an unresolved historical safety-contract counterexample.</text>
</svg>